<svg width="1000" height="203" viewBox="0 0 1000 203" fill="none" xmlns="http://www.w3.org/2000/svg">
<g clip-path="url(#clip0_732_1335)">
<path d="M941.777 50.9813C958.018 50.9813 971.114 55.9561 981.063 65.9058C991.159 75.7091 996.207 88.4388 996.207 104.095C996.207 119.751 991.159 132.554 981.063 142.503C971.114 152.307 958.018 157.209 941.777 157.209C925.389 157.209 912.147 152.307 902.051 142.503C892.102 132.554 887.127 119.751 887.127 104.095C887.127 88.4388 892.102 75.7091 902.051 65.9058C912.147 55.9561 925.389 50.9813 941.777 50.9813ZM924.219 124.726C928.608 129.993 934.461 132.627 941.777 132.627C949.093 132.627 954.872 129.993 959.116 124.726C963.505 119.458 965.7 112.581 965.7 104.095C965.7 95.6084 963.505 88.7315 959.116 83.464C954.872 78.1965 949.093 75.5628 941.777 75.5628C934.461 75.5628 928.608 78.1965 924.219 83.464C919.829 88.7315 917.634 95.6084 917.634 104.095C917.634 112.581 919.829 119.458 924.219 124.726Z" fill="#0D1217"/>
<path d="M710.276 50.9813C723.591 50.9813 734.126 54.493 741.881 61.5162C749.782 68.3932 753.733 77.026 753.733 87.4146L753.074 95.0963L726.517 96.6327C726.81 96.0474 726.956 94.5111 726.956 92.0236C726.956 87.3415 725.42 83.464 722.347 80.3913C719.421 77.1723 715.251 75.5628 709.837 75.5628C702.96 75.5628 697.4 78.1234 693.157 83.2445C689.06 88.3657 687.011 95.0963 687.011 103.436C687.011 112.508 689.279 119.678 693.815 124.945C698.497 130.066 705.155 132.627 713.788 132.627C726.078 132.627 735.516 128.603 742.1 120.556L756.805 139.431C753.001 144.259 747.221 148.429 739.466 151.941C731.712 155.453 722.494 157.209 711.812 157.209C694.693 157.209 681.159 152.38 671.209 142.723C661.406 132.92 656.504 120.19 656.504 104.534C656.504 88.5852 661.479 75.7091 671.428 65.9058C681.378 55.9561 694.327 50.9813 710.276 50.9813Z" fill="#0D1217"/>
<path d="M600.885 134.383C611.566 134.383 620.492 130.432 627.661 122.531L641.927 138.992C637.977 144.113 632.124 148.429 624.369 151.941C616.76 155.453 607.762 157.209 597.373 157.209C580.254 157.209 566.646 152.307 556.55 142.503C546.601 132.7 541.626 119.897 541.626 104.095C541.626 88.4388 546.454 75.7091 556.111 65.9058C565.769 55.9561 578.571 50.9813 594.52 50.9813C609.298 50.9813 620.931 55.5172 629.417 64.5889C637.904 73.6607 642.147 85.4393 642.147 99.9248L641.269 110.899H571.475C572.792 118.068 575.938 123.775 580.912 128.018C585.887 132.261 592.545 134.383 600.885 134.383ZM594.52 73.807C588.521 73.807 583.4 75.7091 579.157 79.5134C575.06 83.1714 572.499 88.4388 571.475 95.3158H614.712C614.566 89.0241 612.664 83.903 609.006 79.9524C605.494 75.8554 600.665 73.807 594.52 73.807Z" fill="#0D1217"/>
<path d="M498.601 52.2982H522.305V151.941C522.305 167.158 517.038 179.376 506.503 188.594C495.968 197.812 481.848 202.421 464.143 202.421C445.268 202.421 429.759 198.324 417.614 190.13L420.617 169.405C430.128 176.574 450.463 178.278 463.485 178.278C472.264 178.278 479.214 176.084 484.335 171.694C489.603 167.451 492.237 161.159 492.237 152.819V140.089C485.506 149.893 475.117 154.794 461.071 154.794C447.317 154.794 436.05 150.258 427.271 141.187C418.492 131.969 414.103 119.166 414.103 102.778C414.103 87.122 418.273 74.6117 426.613 65.2474C434.953 55.7367 446.219 50.9813 460.412 50.9813C476.946 50.9813 488.286 57.9314 494.431 71.8317H495.09C494.943 70.2222 495.236 67.2958 495.968 63.0526C496.699 58.8093 497.577 55.2245 498.601 52.2982ZM468.533 129.554C475.703 129.554 481.409 127.067 485.652 122.092C490.042 116.971 492.237 111.338 492.237 105.192V100.583C492.237 93.9989 490.042 88.2925 485.652 83.464C481.263 78.6355 475.337 76.2212 467.875 76.2212C460.851 76.2212 455.218 78.6355 450.975 83.464C446.732 88.2925 444.61 94.7305 444.61 102.778C444.61 110.972 446.732 117.483 450.975 122.312C455.364 127.14 461.217 129.554 468.533 129.554Z" fill="#0D1217"/>
<path d="M356.727 50.9813C369.164 50.9813 378.675 54.7856 385.259 62.3942C391.99 70.0027 395.355 79.9524 395.355 92.2431V155.892H365.287V97.5106C365.287 91.2189 363.677 86.2441 360.458 82.5861C357.385 78.7818 352.923 76.8797 347.07 76.8797C339.9 76.8797 334.413 79.4403 330.609 84.5614C326.951 89.6825 325.122 95.6084 325.122 102.339V155.892H295.054V52.2982L318.538 51.4203C321.025 59.1751 322.269 66.4179 322.269 73.1486H323.147C329.146 58.3704 340.339 50.9813 356.727 50.9813Z" fill="#0D1217"/>
<path d="M274.858 19.1561C274.858 24.5699 272.956 29.0326 269.152 32.5443C265.348 36.0559 260.739 37.8117 255.325 37.8117C249.911 37.8117 245.302 36.0559 241.498 32.5443C237.84 29.0326 236.011 24.5699 236.011 19.1561C236.011 13.8887 237.84 9.49912 241.498 5.98748C245.302 2.32953 249.911 0.500549 255.325 0.500549C260.739 0.500549 265.348 2.32953 269.152 5.98748C272.956 9.49912 274.858 13.8887 274.858 19.1561ZM240.181 155.891V52.2973L270.249 51.4194V155.891H240.181Z" fill="#0D1217"/>
<path d="M166.532 50.9813C182.773 50.9813 195.869 55.9561 205.818 65.9058C215.914 75.7091 220.962 88.4388 220.962 104.095C220.962 119.751 215.914 132.554 205.818 142.503C195.869 152.307 182.773 157.209 166.532 157.209C150.144 157.209 136.902 152.307 126.806 142.503C116.857 132.554 111.882 119.751 111.882 104.095C111.882 88.4388 116.857 75.7091 126.806 65.9058C136.902 55.9561 150.144 50.9813 166.532 50.9813ZM148.974 124.726C153.363 129.993 159.216 132.627 166.532 132.627C173.848 132.627 179.627 129.993 183.871 124.726C188.26 119.458 190.455 112.581 190.455 104.095C190.455 95.6084 188.26 88.7315 183.871 83.464C179.627 78.1965 173.848 75.5628 166.532 75.5628C159.216 75.5628 153.363 78.1965 148.974 83.464C144.584 88.7315 142.389 95.6084 142.389 104.095C142.389 112.581 144.584 119.458 148.974 124.726Z" fill="#0D1217"/>
<path d="M53.772 50.9813C67.087 50.9813 77.6219 54.493 85.3768 61.5162C93.278 68.3932 97.2286 77.026 97.2286 87.4146L96.5702 95.0963L70.0134 96.6327C70.306 96.0474 70.4523 94.5111 70.4523 92.0236C70.4523 87.3415 68.916 83.464 65.8433 80.3913C62.9169 77.1723 58.7469 75.5628 53.3331 75.5628C46.4561 75.5628 40.896 78.1234 36.6528 83.2445C32.5559 88.3657 30.5074 95.0963 30.5074 103.436C30.5074 112.508 32.7753 119.678 37.3112 124.945C41.9934 130.066 48.6509 132.627 57.2837 132.627C69.5744 132.627 79.012 128.603 85.5963 120.556L100.301 139.431C96.497 144.259 90.7174 148.429 82.9626 151.941C75.2077 155.453 65.9896 157.209 55.3084 157.209C38.1891 157.209 24.6547 152.38 14.705 142.723C4.90167 132.92 0 120.19 0 104.534C0 88.5852 4.97483 75.7091 14.9245 65.9058C24.8741 55.9561 37.8233 50.9813 53.772 50.9813Z" fill="#0D1217"/>
<path d="M850.103 109.776C856.336 120.689 862.561 129.568 869.046 138.816C871.859 142.828 874.721 146.91 877.654 151.258C881.38 156.783 876.548 163.403 870.39 160.855C846.379 150.921 828.838 132.229 816.821 114.631H803.942V155.893H773.874V0.941881H803.942V91.1472H816.672C824.866 91.1472 831.304 88.6598 835.986 83.685C840.668 78.7101 843.009 71.6137 843.009 62.3956C843.009 60.0545 842.717 56.6892 842.132 52.2997H870.883C871.615 55.665 871.981 59.2498 871.981 63.0541C871.981 83.4332 862.882 100.892 850.103 109.776Z" fill="#0D1217"/>
</g>
<defs>
<clipPath id="clip0_732_1335">
<rect width="1000" height="201.923" fill="white" transform="translate(0 0.500549)"/>
</clipPath>
</defs>
</svg>
